<?xml version="1.0" encoding="UTF-8" standalone="no"?>
<!-- Created with Inkscape (http://www.inkscape.org/) -->

<svg
   width="32"
   height="32"
   viewBox="0 0 32 32"
   version="1.1"
   id="svg1"
   inkscape:version="1.4.2 (ebf0e940d0, 2025-05-08)"
   sodipodi:docname="microphone-active.svg"
   xmlns:inkscape="http://www.inkscape.org/namespaces/inkscape"
   xmlns:sodipodi="http://sodipodi.sourceforge.net/DTD/sodipodi-0.dtd"
   xmlns:xlink="http://www.w3.org/1999/xlink"
   xmlns="http://www.w3.org/2000/svg"
   xmlns:svg="http://www.w3.org/2000/svg">
  <sodipodi:namedview
     id="namedview1"
     pagecolor="#505050"
     bordercolor="#ffffff"
     borderopacity="1"
     inkscape:showpageshadow="0"
     inkscape:pageopacity="0"
     inkscape:pagecheckerboard="1"
     inkscape:deskcolor="#505050"
     inkscape:document-units="px"
     showguides="true"
     inkscape:zoom="34.8125"
     inkscape:cx="15.195691"
     inkscape:cy="13.960503"
     inkscape:window-width="2560"
     inkscape:window-height="1328"
     inkscape:window-x="0"
     inkscape:window-y="40"
     inkscape:window-maximized="1"
     inkscape:current-layer="layer5"
     showgrid="false">
    <sodipodi:guide
       position="15.99231,16.044324"
       orientation="1,0"
       id="guide1"
       inkscape:locked="false" />
    <sodipodi:guide
       position="15.995985,15.979378"
       orientation="0,-1"
       id="guide2"
       inkscape:locked="false" />
    <sodipodi:guide
       position="7.9996081,15.929844"
       orientation="1,0"
       id="guide3"
       inkscape:locked="false" />
    <sodipodi:guide
       position="24.006126,15.924549"
       orientation="1,0"
       id="guide4"
       inkscape:locked="false" />
    <sodipodi:guide
       position="4.0072024,15.984689"
       orientation="1,0"
       id="guide5"
       inkscape:locked="false" />
    <sodipodi:guide
       position="27.959959,15.982737"
       orientation="1,0"
       id="guide6"
       inkscape:locked="false" />
    <sodipodi:guide
       position="16.024679,2.9823027"
       orientation="0,-1"
       id="guide7"
       inkscape:locked="false" />
    <sodipodi:guide
       position="16,6.9802513"
       orientation="0,-1"
       id="guide8"
       inkscape:locked="false" />
  </sodipodi:namedview>
  <defs
     id="defs1">
    <pattern
       inkscape:collect="always"
       xlink:href="#shading26"
       preserveAspectRatio="xMidYMid"
       id="pattern21"
       patternTransform="matrix(0.15,0,0,0.15,213.95313,1661.1855)"
       x="5"
       y="-9"
       width="734.26269531" />
    <clipPath
       clipPathUnits="userSpaceOnUse"
       id="clipPath54">
      <path
         id="path54"
         style="stroke-width:0.0999999;stroke-linecap:square;paint-order:markers fill stroke;stop-color:#000000"
         d="m 1691.1994,-792.32001 h 1634.8919 v 92.82806 H 1691.1994 Z" />
    </clipPath>
    <pattern
       patternUnits="userSpaceOnUse"
       width="458.91419"
       height="32.1666"
       patternTransform="translate(213.95313,1661.1855) scale(0.50)"
       preserveAspectRatio="xMidYMid"
       id="shading26"
       style="fill:#e1e1e1"
       inkscape:label="Sombreamento de linhas verticais em zigue-zague"
       inkscape:collect="always"
       inkscape:isstock="true">
      <path
         style="fill-rule:nonzero;stroke:none;stroke-width:0.1;stroke-linecap:square;paint-order:markers fill stroke;stop-color:#000000"
         d="m 1805.253,-758.46472 c 2.0199,-1.6381 19.9642,8.10228 21.9841,6.46418 21.6198,-17.53283 46.2727,-37.64976 73.5246,-59.981 v 0 c 25.9809,19.65985 54.0444,40.83546 83.863,63.2885 l 10.6075,7.98549 10.4529,-7.68367 c 27.0646,-19.89942 55.5585,-40.88668 85.2364,-62.77519 v 0 c 27.7606,18.37638 56.4868,37.37105 85.989,56.86265 l 8.4807,5.6026 8.226,-5.34235 c 28.4598,-18.48466 57.6391,-37.45176 87.3659,-56.7859 v 0 c 28.9846,16.55965 58.4587,33.38981 88.2675,50.40499 l 6.2651,3.57611 6.0027,-3.36923 c 29.5517,-16.58735 59.4322,-33.36536 89.4887,-50.24537 v 0 c 30.0302,14.47678 60.2186,29.02709 90.4154,43.58131 l 4.2068,2.02761 3.9808,-1.87912 c 30.5113,-14.40273 61.0311,-28.80967 91.403,-43.14415 30.9776,12.19206 61.7896,24.32173 92.2716,36.32702 l 2.456,0.9673 2.2912,-0.87545 c 31.4044,-11.99933 62.4587,-23.85885 92.9812,-35.50596 v 0 c 31.8985,9.7531 63.2067,19.33577 93.7183,28.6884 l 1.1227,0.34414 1.0302,-0.30014 c 32.3552,-9.4259 63.8161,-18.57513 94.1348,-27.37102 33.0276,7.23306 64.6894,14.19252 94.6654,20.81424 l 0.2874,0.0635 0.2604,-0.0518 c 33.9102,-6.74391 65.6711,-13.01584 94.819,-18.71395 v 0 c 35.9763,4.87029 67.9479,9.29314 95.0397,13.17078 -27.1102,-3.88028 -59.0638,-8.60724 -94.9917,-14.02894 l -0.067,-0.0101 -0.073,0.0131 c -29.166,5.24521 -60.9646,10.90129 -94.9296,16.89548 v 0 c -29.945,-7.29193 -61.5634,-15.02639 -94.536,-23.11898 l -0.5817,-0.14278 -0.639,0.1683 c -30.3517,7.994 -61.8539,16.26941 -94.2589,24.76558 v 0 c -30.4835,-10.24387 -61.7575,-20.76785 -93.6151,-31.49861 l -1.6023,-0.53972 -1.7314,0.6061 c -30.5409,10.69114 -61.6186,21.56098 -93.0524,32.54935 v 0 c -30.4769,-13.00991 -61.279,-26.16438 -92.2405,-39.38965 l -3.0877,-1.31894 -3.2854,1.43846 c -30.361,13.29293 -60.8752,26.65035 -91.3881,40.00719 v 0 c -30.226,-15.62318 -60.4371,-31.23836 -90.4809,-46.76407 l -4.9574,-2.56184 -5.2057,2.73972 c -30.0066,15.79238 -59.8462,31.49984 -89.3693,47.04623 v 0 c -29.8816,-18.11236 -59.4157,-36.00744 -88.4434,-53.58593 l -7.0991,-4.2989 -7.365,4.53346 c -29.6279,18.23811 -58.7274,36.16094 -87.1317,53.6691 -29.6324,-20.57281 -58.4593,-40.56911 -86.2836,-59.84778 l -9.3564,-6.4819 -9.5787,6.76494 c -29.5053,20.84087 -57.8757,40.90538 -84.878,60.03398 v 0 c -30.0663,-23.44287 -58.2811,-45.39239 -84.2942,-65.56618 l -11.4535,-8.87805 -11.4711,9.19271 c -32.0177,25.67056 -60.6296,48.71345 -85.1752,68.61894 -2.0199,1.6381 3.8046,21.20709 1.7847,22.84519 z m 0,46.41401 c 2.0199,-1.6381 19.9642,8.10228 21.9841,6.46418 21.6198,-17.53283 46.2727,-37.64976 73.5246,-59.981 v 0 c 25.9809,19.65985 54.0444,40.83546 83.863,63.2885 l 10.6075,7.98549 10.4529,-7.68367 c 27.0646,-19.89942 55.5585,-40.88668 85.2364,-62.77519 v 0 c 27.7606,18.37638 56.4868,37.37105 85.989,56.86265 l 8.4807,5.6026 8.226,-5.34235 c 28.4598,-18.48466 57.6391,-37.45176 87.3659,-56.7859 v 0 c 28.9846,16.55965 58.4587,33.38981 88.2675,50.40499 l 6.2651,3.57611 6.0027,-3.36923 c 29.5517,-16.58735 59.4322,-33.36536 89.4887,-50.24537 v 0 c 30.0302,14.47678 60.2186,29.02709 90.4154,43.58131 l 4.2068,2.02761 3.9808,-1.87912 c 30.5113,-14.40273 61.0311,-28.80967 91.403,-43.14415 30.9776,12.19206 61.7896,24.32173 92.2716,36.32702 l 2.456,0.9673 2.2912,-0.87545 c 31.4044,-11.99933 62.4587,-23.85885 92.9812,-35.50596 v 0 c 31.8985,9.75309 63.2067,19.33577 93.7183,28.6884 l 1.1227,0.34414 1.0302,-0.30014 c 32.3552,-9.4259 63.8161,-18.57513 94.1348,-27.37103 33.0276,7.23307 64.6894,14.19253 94.6654,20.81425 l 0.2874,0.0635 0.2604,-0.0518 c 33.9102,-6.74391 65.6711,-13.01584 94.819,-18.71395 v 0 c 35.9763,4.87029 67.9479,9.29314 95.0397,13.17078 -27.1102,-3.88028 -59.0638,-8.60724 -94.9917,-14.02894 l -0.067,-0.0101 -0.073,0.0131 c -29.166,5.24521 -60.9646,10.90129 -94.9296,16.89548 v 0 c -29.945,-7.29193 -61.5634,-15.02639 -94.536,-23.11899 l -0.5817,-0.14277 -0.639,0.1683 c -30.3517,7.994 -61.8539,16.26941 -94.2589,24.76558 v 0 c -30.4835,-10.24387 -61.7575,-20.76785 -93.6151,-31.49861 l -1.6023,-0.53972 -1.7314,0.6061 c -30.5409,10.69114 -61.6186,21.56098 -93.0524,32.54935 v 0 c -30.4769,-13.00991 -61.279,-26.16438 -92.2405,-39.38965 l -3.0877,-1.31894 -3.2854,1.43846 c -30.361,13.29292 -60.8752,26.65035 -91.3881,40.00719 v 0 c -30.226,-15.62318 -60.4371,-31.23836 -90.4809,-46.76407 l -4.9574,-2.56184 -5.2057,2.73972 c -30.0066,15.79238 -59.8462,31.49984 -89.3693,47.04623 v 0 c -29.8816,-18.11237 -59.4157,-36.00744 -88.4434,-53.58593 l -7.0991,-4.2989 -7.365,4.53346 c -29.6279,18.23811 -58.7274,36.16094 -87.1317,53.6691 -29.6324,-20.57281 -58.4593,-40.56911 -86.2836,-59.84778 l -9.3564,-6.4819 -9.5787,6.76494 c -29.5053,20.84087 -57.8757,40.90538 -84.878,60.03398 v 0 c -30.0663,-23.44287 -58.2811,-45.39239 -84.2942,-65.56618 l -11.4535,-8.87805 -11.4711,9.19271 c -32.0177,25.67056 -60.6296,48.71345 -85.1752,68.61894 -2.0199,1.6381 3.8046,21.20709 1.7847,22.84519 z m 0,46.41401 c 2.0199,-1.6381 19.9642,8.10228 21.9841,6.46418 21.6198,-17.53283 46.2727,-37.64976 73.5246,-59.981 v 0 c 25.9809,19.65985 54.0444,40.83546 83.863,63.2885 l 10.6075,7.98549 10.4529,-7.68367 c 27.0646,-19.89942 55.5585,-40.88668 85.2364,-62.77519 v 0 c 27.7606,18.37638 56.4868,37.37105 85.989,56.86265 l 8.4807,5.6026 8.226,-5.34235 c 28.4598,-18.48466 57.6391,-37.45176 87.3659,-56.78591 v 0 c 28.9846,16.55966 58.4587,33.38982 88.2675,50.405 l 6.2651,3.57611 6.0027,-3.36923 c 29.5517,-16.58735 59.4322,-33.36536 89.4887,-50.24537 v 0 c 30.0302,14.47678 60.2186,29.02709 90.4154,43.58131 l 4.2068,2.02761 3.9808,-1.87912 c 30.5113,-14.40274 61.0311,-28.80967 91.403,-43.14415 30.9776,12.19206 61.7896,24.32173 92.2716,36.32702 l 2.456,0.9673 2.2912,-0.87545 c 31.4044,-11.99933 62.4587,-23.85885 92.9812,-35.50596 v 0 c 31.8985,9.75309 63.2067,19.33577 93.7183,28.6884 l 1.1227,0.34414 1.0302,-0.30014 c 32.3552,-9.4259 63.8161,-18.57513 94.1348,-27.37103 33.0276,7.23307 64.6894,14.19253 94.6654,20.81425 l 0.2874,0.0635 0.2604,-0.0518 c 33.9102,-6.74391 65.6711,-13.01584 94.819,-18.71395 v 0 c 35.9763,4.87029 67.9479,9.29314 95.0397,13.17078 -27.1102,-3.88028 -59.0638,-8.60724 -94.9917,-14.02894 l -0.067,-0.0101 -0.073,0.0131 c -29.166,5.24521 -60.9646,10.90129 -94.9296,16.89547 v 0 c -29.945,-7.29193 -61.5634,-15.02638 -94.536,-23.11898 l -0.5817,-0.14277 -0.639,0.1683 c -30.3517,7.994 -61.8539,16.26941 -94.2589,24.76558 v 0 c -30.4835,-10.24387 -61.7575,-20.76785 -93.6151,-31.49861 l -1.6023,-0.53972 -1.7314,0.6061 c -30.5409,10.69114 -61.6186,21.56098 -93.0524,32.54935 v 0 c -30.4769,-13.00991 -61.279,-26.16438 -92.2405,-39.38965 l -3.0877,-1.31894 -3.2854,1.43846 c -30.361,13.29292 -60.8752,26.65034 -91.3881,40.00719 v 0 c -30.226,-15.62318 -60.4371,-31.23836 -90.4809,-46.76407 l -4.9574,-2.56184 -5.2057,2.73972 c -30.0066,15.79238 -59.8462,31.49984 -89.3693,47.04622 v 0 c -29.8816,-18.11236 -59.4157,-36.00743 -88.4434,-53.58592 l -7.0991,-4.2989 -7.365,4.53346 c -29.6279,18.2381 -58.7274,36.16094 -87.1317,53.6691 -29.6324,-20.57281 -58.4593,-40.56911 -86.2836,-59.84778 l -9.3564,-6.4819 -9.5787,6.76494 c -29.5053,20.84087 -57.8757,40.90538 -84.878,60.03398 v 0 c -30.0663,-23.44287 -58.2811,-45.39239 -84.2942,-65.56618 l -11.4535,-8.87805 -11.4711,9.19271 c -32.0177,25.67055 -60.6296,48.71345 -85.1752,68.61894 -2.0199,1.6381 3.8046,21.20709 1.7847,22.84519 z m 0,46.41401 c 2.0199,-1.6381 19.9642,8.10228 21.9841,6.46418 21.6198,-17.53283 46.2727,-37.64976 73.5246,-59.981 v 0 c 25.9809,19.65985 54.0444,40.83546 83.863,63.2885 l 10.6075,7.98549 10.4529,-7.68367 c 27.0646,-19.89942 55.5585,-40.88668 85.2364,-62.77519 v 0 c 27.7606,18.37638 56.4868,37.37105 85.989,56.86265 l 8.4807,5.6026 8.226,-5.34235 c 28.4598,-18.48466 57.6391,-37.45176 87.3659,-56.78591 v 0 c 28.9846,16.55966 58.4587,33.38982 88.2675,50.405 l 6.2651,3.57611 6.0027,-3.36923 c 29.5517,-16.58735 59.4322,-33.36536 89.4887,-50.24537 v 0 c 30.0302,14.47678 60.2186,29.02709 90.4154,43.58131 l 4.2068,2.02761 3.9808,-1.87913 c 30.5113,-14.40273 61.0311,-28.80966 91.403,-43.14414 30.9776,12.19206 61.7896,24.32173 92.2716,36.32702 l 2.456,0.9673 2.2912,-0.87545 c 31.4044,-11.99933 62.4587,-23.85885 92.9812,-35.50596 v 0 c 31.8985,9.75309 63.2067,19.33577 93.7183,28.6884 l 1.1227,0.34414 1.0302,-0.30014 c 32.3552,-9.4259 63.8161,-18.57513 94.1348,-27.37103 33.0276,7.23307 64.6894,14.19253 94.6654,20.81425 l 0.2874,0.0635 0.2604,-0.0518 c 33.9102,-6.74391 65.6711,-13.01584 94.819,-18.71395 v 0 c 35.9763,4.87029 67.9479,9.29314 95.0397,13.17078 -27.1102,-3.88028 -59.0638,-8.60724 -94.9917,-14.02894 l -0.067,-0.0101 -0.073,0.0131 c -29.166,5.24521 -60.9646,10.90129 -94.9296,16.89547 v 0 c -29.945,-7.29193 -61.5634,-15.02638 -94.536,-23.11898 l -0.5817,-0.14277 -0.639,0.1683 c -30.3517,7.994 -61.8539,16.26941 -94.2589,24.76558 v 0 c -30.4835,-10.24387 -61.7575,-20.76785 -93.6151,-31.49861 l -1.6023,-0.53972 -1.7314,0.6061 c -30.5409,10.69114 -61.6186,21.56098 -93.0524,32.54935 v 0 c -30.4769,-13.00991 -61.279,-26.16438 -92.2405,-39.38965 l -3.0877,-1.31894 -3.2854,1.43846 c -30.361,13.29292 -60.8752,26.65034 -91.3881,40.00719 v 0 c -30.226,-15.62319 -60.4371,-31.23836 -90.4809,-46.76407 l -4.9574,-2.56184 -5.2057,2.73972 c -30.0066,15.79238 -59.8462,31.49983 -89.3693,47.04622 v 0 c -29.8816,-18.11236 -59.4157,-36.00743 -88.4434,-53.58592 l -7.0991,-4.2989 -7.365,4.53346 c -29.6279,18.2381 -58.7274,36.16094 -87.1317,53.6691 -29.6324,-20.57281 -58.4593,-40.56911 -86.2836,-59.84778 l -9.3564,-6.4819 -9.5787,6.76494 c -29.5053,20.84087 -57.8757,40.90538 -84.878,60.03398 v 0 c -30.0663,-23.44287 -58.2811,-45.39239 -84.2942,-65.56618 l -11.4535,-8.87805 -11.4711,9.19271 c -32.0177,25.67055 -60.6296,48.71345 -85.1752,68.61894 -2.0199,1.6381 3.8046,21.20709 1.7847,22.84519 z m 0,46.41401 c 2.0199,-1.6381 19.9642,8.10228 21.9841,6.46418 21.6198,-17.53283 46.2727,-37.64976 73.5246,-59.981 v 0 c 25.9809,19.65985 54.0444,40.83546 83.863,63.2885 l 10.6075,7.98549 10.4529,-7.68367 c 27.0646,-19.89943 55.5585,-40.88668 85.2364,-62.77519 v 0 c 27.7606,18.37638 56.4868,37.37105 85.989,56.86265 l 8.4807,5.6026 8.226,-5.34235 c 28.4598,-18.48466 57.6391,-37.45176 87.3659,-56.78591 v 0 c 28.9846,16.55966 58.4587,33.38982 88.2675,50.40499 l 6.2651,3.57612 6.0027,-3.36923 c 29.5517,-16.58735 59.4322,-33.36536 89.4887,-50.24537 v 0 c 30.0302,14.47678 60.2186,29.02709 90.4154,43.58131 l 4.2068,2.02761 3.9808,-1.87913 c 30.5113,-14.40273 61.0311,-28.80966 91.403,-43.14414 30.9776,12.19206 61.7896,24.32173 92.2716,36.32701 l 2.456,0.9673 2.2912,-0.87544 c 31.4044,-11.99933 62.4587,-23.85885 92.9812,-35.50596 v 0 c 31.8985,9.75309 63.2067,19.33577 93.7183,28.6884 l 1.1227,0.34414 1.0302,-0.30014 c 32.3552,-9.4259 63.8161,-18.57513 94.1348,-27.37103 33.0276,7.23307 64.6894,14.19253 94.6654,20.81425 l 0.2874,0.0635 0.2604,-0.0518 c 33.9102,-6.74391 65.6711,-13.01584 94.819,-18.71395 v 0 c 35.9763,4.87029 67.9479,9.29314 95.0397,13.17078 -27.1102,-3.88028 -59.0638,-8.60724 -94.9917,-14.02894 l -0.067,-0.0101 -0.073,0.0131 c -29.166,5.24522 -60.9646,10.9013 -94.9296,16.89548 v 0 c -29.945,-7.29193 -61.5634,-15.02638 -94.536,-23.11898 l -0.5817,-0.14277 -0.639,0.1683 c -30.3517,7.994 -61.8539,16.26941 -94.2589,24.76558 v 0 c -30.4835,-10.24387 -61.7575,-20.76785 -93.6151,-31.49861 l -1.6023,-0.53972 -1.7314,0.6061 c -30.5409,10.69114 -61.6186,21.56098 -93.0524,32.54935 v 0 c -30.4769,-13.00991 -61.279,-26.16438 -92.2405,-39.38965 l -3.0877,-1.31894 -3.2854,1.43846 c -30.361,13.29292 -60.8752,26.65034 -91.3881,40.00719 v 0 c -30.226,-15.62319 -60.4371,-31.23836 -90.4809,-46.76407 l -4.9574,-2.56184 -5.2057,2.73972 c -30.0066,15.79238 -59.8462,31.49983 -89.3693,47.04622 v 0 c -29.8816,-18.11236 -59.4157,-36.00743 -88.4434,-53.58592 l -7.0991,-4.2989 -7.365,4.53345 c -29.6279,18.23811 -58.7274,36.16095 -87.1317,53.66911 -29.6324,-20.57281 -58.4593,-40.56911 -86.2836,-59.84778 l -9.3564,-6.4819 -9.5787,6.76494 c -29.5053,20.84087 -57.8757,40.90538 -84.878,60.03398 v 0 c -30.0663,-23.44287 -58.2811,-45.39239 -84.2942,-65.56618 l -11.4535,-8.87805 -11.4711,9.19271 c -32.0177,25.67055 -60.6296,48.71345 -85.1752,68.61894 -2.0199,1.6381 3.8046,21.20709 1.7847,22.84519 z"
         id="use24"
         inkscape:linked-fill="path21"
         sodipodi:nodetypes="ccccccccccccccccc"
         clip-path="url(#clipPath54)"
         transform="matrix(0.30131154,0,0,0.34651807,-543.27542,274.5532)" />
    </pattern>
    <clipPath
       clipPathUnits="userSpaceOnUse"
       id="clipPath19">
      <rect
         style="fill:#ff0000;stroke:none;stroke-width:3;stroke-linecap:square;stroke-linejoin:miter;paint-order:stroke markers fill;stop-color:#000000"
         id="rect19"
         width="78"
         height="45.033199"
         x="763.61322"
         y="452.82422" />
    </clipPath>
    <clipPath
       clipPathUnits="userSpaceOnUse"
       id="clipPath25">
      <rect
         style="fill:#ff0000;stroke:none;stroke-width:3;stroke-linecap:square;stroke-linejoin:miter;paint-order:stroke markers fill;stop-color:#000000"
         id="rect25-8"
         width="78"
         height="45.033199"
         x="763.61322"
         y="452.82422" />
    </clipPath>
  </defs>
  <g
     inkscape:label="mic_bottom"
     inkscape:groupmode="layer"
     id="layer1">
    <path
       id="base_pipe"
       style="display:inline;stroke-width:1.14642;fill:#e1e1e1;fill-opacity:1"
       d="m 14.017954,24.847397 h 3.964093 v 4.567325 h -3.964093 z"
       inkscape:label="base_pipe" />
    <path
       id="base"
       d="m 8.0143623,31.109514 c 3.7780067,-3.088599 11.9347387,-3.174775 16.0287247,0 0.234564,0.181898 0,0.890485 0,0.890485 H 8.0143623 c 0,0 -0.229807,-0.702613 0,-0.890485 z"
       sodipodi:nodetypes="ssccs"
       style="display:inline;fill:#e1e1e1;fill-opacity:1"
       inkscape:label="base" />
    <path
       id="rest"
       style="display:inline;fill:none;stroke:#e1e1e1;stroke-width:2.03102;stroke-linejoin:round;fill-opacity:1;stroke-opacity:1"
       d="M 9.9672451,11.71686 A 10.960196,7.6711893 0 0 0 4.9655606,18.154395 10.960196,7.6711893 0 0 0 15.926605,25.826312 10.960196,7.6711893 0 0 0 26.885483,18.154395 10.960196,7.6711893 0 0 0 21.885214,11.71686 Z"
       transform="matrix(1,0,0.00329562,0.99999457,0,0)"
       inkscape:label="rest" />
    <path
       id="body"
       style="display:inline;fill:#e1e1e1;fill-opacity:1;stroke:none;stroke-width:1.16698;stroke-linecap:butt;stroke-linejoin:round;stroke-dasharray:none;stroke-opacity:1;paint-order:normal"
       d="m 8.0039062,12.560547 v 4.648437 c 0,3.151377 2.5361238,5.689454 5.6874998,5.689454 h 4.566406 c 3.151377,0 5.6875,-2.538077 5.6875,-5.689454 v -4.533203 c -0.536358,0.744179 -1.410946,1.226563 -2.402343,1.226563 H 10.484375 c -1.0416924,0 -1.953549,-0.532588 -2.4804688,-1.341797 z"
       inkscape:label="body" />
    <path
       id="pendulum"
       style="display:inline;stroke:#e1e1e1;stroke-width:1.46549;stroke-linejoin:round;fill:#e1e1e1;fill-opacity:1;stroke-opacity:1"
       d="M 7.6409339,12.343159 H 24.387793 c 0.466334,0 0.841759,0.375425 0.841759,0.841759 0,0.466335 -0.375425,0.84176 -0.841759,0.84176 H 7.6409339 c -0.4663348,0 -0.8417596,-0.375425 -0.8417596,-0.84176 0,-0.466334 0.3754248,-0.841759 0.8417596,-0.841759 z"
       inkscape:label="pendulum" />
  </g>
  <g
     inkscape:groupmode="layer"
     id="layer5"
     inkscape:label="mic_top">
    <path
       id="head"
       style="mix-blend-mode:normal;fill:url(#pattern21);fill-opacity:1;stroke:none;stroke-width:1.22382;stroke-linecap:butt;stroke-linejoin:round;stroke-dasharray:none;stroke-opacity:1;paint-order:normal"
       d="M 23.259179,12.429453 V 6.8768715 c 0,-3.7643358 -2.335046,-6.79608159 -5.236566,-6.79608159 h -4.204358 c -2.901521,0 -5.236567,3.03174579 -5.236567,6.79608159 V 12.291806 C 9.0755209,11.40288 9.8807672,10.82667 10.793561,10.82667 h 10.181814 c 0.959101,0 1.798661,0.636178 2.283804,1.602783 z"
       inkscape:label="head" />
  </g>
</svg>
